<mxfile host="app.diagrams.net" agent="Mozilla/5.0 (Windows NT 10.0; Win64; x64) AppleWebKit/537.36 (KHTML, like Gecko) Chrome/137.0.0.0 Safari/537.36" version="27.1.5">
  <diagram name="Page-1" id="4GhxJ3x2ZIjGT0eRnkmw">
    <mxGraphModel dx="1643" dy="465" grid="1" gridSize="10" guides="1" tooltips="1" connect="1" arrows="1" fold="1" page="1" pageScale="1" pageWidth="850" pageHeight="1100" math="0" shadow="0">
      <root>
        <mxCell id="0" />
        <mxCell id="1" parent="0" />
        <mxCell id="4wWfT5hUCqmGtjvVYbAb-1" value="&lt;h1&gt;&lt;span style=&quot;font-family: quote-cjk-patch, Inter, system-ui, -apple-system, BlinkMacSystemFont, &amp;quot;Segoe UI&amp;quot;, Roboto, &amp;quot;Noto Sans&amp;quot;, Ubuntu, Cantarell, &amp;quot;Helvetica Neue&amp;quot;, Oxygen, &amp;quot;Open Sans&amp;quot;, sans-serif; text-align: left;&quot;&gt;Host Machine&lt;/span&gt;&lt;/h1&gt;" style="rounded=0;whiteSpace=wrap;html=1;spacingTop=-120;labelBackgroundColor=none;fontColor=light-dark(#FFFFFF,#FFFFFF);fontSize=12;fillColor=light-dark(#1BA1E2,#000033);strokeColor=#006EAF;" vertex="1" parent="1">
          <mxGeometry x="-60" y="111" width="169" height="79" as="geometry" />
        </mxCell>
        <mxCell id="4wWfT5hUCqmGtjvVYbAb-2" value="&lt;h1&gt;&lt;span style=&quot;font-family: quote-cjk-patch, Inter, system-ui, -apple-system, BlinkMacSystemFont, &amp;quot;Segoe UI&amp;quot;, Roboto, &amp;quot;Noto Sans&amp;quot;, Ubuntu, Cantarell, &amp;quot;Helvetica Neue&amp;quot;, Oxygen, &amp;quot;Open Sans&amp;quot;, sans-serif; text-align: left;&quot;&gt;Kali Linux VM&lt;/span&gt;&lt;/h1&gt;" style="rounded=0;whiteSpace=wrap;html=1;spacingTop=-120;labelBackgroundColor=none;labelBorderColor=none;fontColor=light-dark(#000000,#FFFFFF);fontSize=12;fillColor=light-dark(#FFFFFF,#000000);" vertex="1" parent="1">
          <mxGeometry x="305" y="111" width="165" height="79" as="geometry" />
        </mxCell>
        <mxCell id="4wWfT5hUCqmGtjvVYbAb-3" value="&lt;h1&gt;&lt;span style=&quot;font-family: quote-cjk-patch, Inter, system-ui, -apple-system, BlinkMacSystemFont, &amp;quot;Segoe UI&amp;quot;, Roboto, &amp;quot;Noto Sans&amp;quot;, Ubuntu, Cantarell, &amp;quot;Helvetica Neue&amp;quot;, Oxygen, &amp;quot;Open Sans&amp;quot;, sans-serif; text-align: left;&quot;&gt;Internet&lt;/span&gt;&lt;/h1&gt;" style="ellipse;shape=cloud;whiteSpace=wrap;html=1;spacingTop=-120;labelBackgroundColor=none;fontColor=light-dark(#000000,#FFFFFF);fontSize=13;fillColor=light-dark(#FFFFFF,#808080);" vertex="1" parent="1">
          <mxGeometry x="540" y="101" width="170" height="99" as="geometry" />
        </mxCell>
        <mxCell id="4wWfT5hUCqmGtjvVYbAb-9" value="&lt;b&gt;Bridged Network&lt;/b&gt;" style="endArrow=classic;rounded=0;exitX=1;exitY=0.5;exitDx=0;exitDy=0;labelBackgroundColor=none;fontColor=light-dark(#000000,#FFFFFF);spacingTop=-30;fontSize=16;html=1;" edge="1" parent="1" source="4wWfT5hUCqmGtjvVYbAb-1" target="4wWfT5hUCqmGtjvVYbAb-2">
          <mxGeometry relative="1" as="geometry">
            <mxPoint x="380" y="310" as="sourcePoint" />
            <mxPoint x="480" y="310" as="targetPoint" />
          </mxGeometry>
        </mxCell>
        <mxCell id="4wWfT5hUCqmGtjvVYbAb-14" value="" style="endArrow=classic;html=1;rounded=0;entryX=0.16;entryY=0.55;entryDx=0;entryDy=0;entryPerimeter=0;exitX=1;exitY=0.5;exitDx=0;exitDy=0;" edge="1" parent="1" source="4wWfT5hUCqmGtjvVYbAb-2" target="4wWfT5hUCqmGtjvVYbAb-3">
          <mxGeometry width="50" height="50" relative="1" as="geometry">
            <mxPoint x="260" y="240" as="sourcePoint" />
            <mxPoint x="310" y="190" as="targetPoint" />
          </mxGeometry>
        </mxCell>
      </root>
    </mxGraphModel>
  </diagram>
</mxfile>
